<?xml version="1.0" encoding="utf-8"?>
<!-- Generator: Adobe Illustrator 24.0.3, SVG Export Plug-In . SVG Version: 6.00 Build 0)  -->
<!DOCTYPE svg PUBLIC "-//W3C//DTD SVG 1.1//EN" "http://www.w3.org/Graphics/SVG/1.1/DTD/svg11.dtd" [
	<!ENTITY ns_extend "http://ns.adobe.com/Extensibility/1.0/">
	<!ENTITY ns_ai "http://ns.adobe.com/AdobeIllustrator/10.0/">
	<!ENTITY ns_graphs "http://ns.adobe.com/Graphs/1.0/">
	<!ENTITY ns_vars "http://ns.adobe.com/Variables/1.0/">
	<!ENTITY ns_imrep "http://ns.adobe.com/ImageReplacement/1.0/">
	<!ENTITY ns_sfw "http://ns.adobe.com/SaveForWeb/1.0/">
	<!ENTITY ns_custom "http://ns.adobe.com/GenericCustomNamespace/1.0/">
	<!ENTITY ns_adobe_xpath "http://ns.adobe.com/XPath/1.0/">
]>
<svg version="1.1" id="Layer_1" xmlns:x="&ns_extend;" xmlns:i="&ns_ai;" xmlns:graph="&ns_graphs;"
	 xmlns="http://www.w3.org/2000/svg" xmlns:xlink="http://www.w3.org/1999/xlink" x="0px" y="0px" viewBox="0 0 441.5 324.7"
	 style="enable-background:new 0 0 441.5 324.7;" xml:space="preserve">
<style type="text/css">
	.st0{fill-rule:evenodd;clip-rule:evenodd;fill:url(#SVGID_1_);}
	.st1{fill-rule:evenodd;clip-rule:evenodd;fill:#333333;}
	.st2{fill-rule:evenodd;clip-rule:evenodd;fill:#BFBFBF;stroke:#7F7F7F;stroke-width:12.5;}
	.st3{fill-rule:evenodd;clip-rule:evenodd;fill:#FF7F00;stroke:#333333;stroke-width:12.5;stroke-linejoin:round;}
	.st4{fill-rule:evenodd;clip-rule:evenodd;fill:#FFAA56;stroke:#333333;stroke-width:12.5;}
</style>
<metadata>
	<sfw  xmlns="&ns_sfw;">
		<slices></slices>
		<sliceSourceBounds  bottomLeftOrigin="true" height="324.7" width="441.5" x="3.9" y="75.2"></sliceSourceBounds>
	</sfw>
</metadata>
<g>
	
		<linearGradient id="SVGID_1_" gradientUnits="userSpaceOnUse" x1="-364.5375" y1="544.1868" x2="-363.9813" y2="543.3743" gradientTransform="matrix(297.7819 0 0 -227.5033 108751.3203 123928.9219)">
		<stop  offset="0" style="stop-color:#000000"/>
		<stop  offset="1" style="stop-color:#000000;stop-opacity:0"/>
	</linearGradient>
	<path class="st0" d="M187.4,311c19.7,7,33.8,22.5,88.6,7c54.9-15.5,212.4-97.1,151.9-143.5c-60.5-46.4-191.3-77.4-268.7-77.4
		C146.6,133.8,121.3,285.7,187.4,311L187.4,311L187.4,311z"/>
	<path class="st1" d="M390,173.6c11.3,1.4,30.9,9.3,25.3,26.7c-5.6,17.4-189.9,122.1-213.8,114.2c-23.9-7.9-47.8-34.7-47.8-34.7
		L390,173.6L390,173.6z"/>
	<g>
		<path class="st2" d="M395.6,116.8c2.8,26.9,5.6,55.8,1.4,76.2c-97.1,55.6-171.6,95.9-225.1,108c-18.3-17.4-22.5-99.8-22.5-99.8
			L395.6,116.8L395.6,116.8z"/>
		<g>
			<path class="st3" d="M209.9,214c43.6-20.7,180.1-87.3,202.6-98.6C371.7,94.3,214.1,15.6,176.1,6.2C162.1,11,35.4,67.7,35.4,67.7
				C56.5,90.2,194.4,209.2,209.9,214L209.9,214z"/>
			<path class="st4" d="M207.1,215c0,0-26.7,22.2-28.1,50.7c-1.4,28.5,23.9,34.2,21.1,44.4c-54.9,1.8-157.6-137.3-181.5-163.9
				C8,130.1,3.4,117.2,8,99c4.6-18.2,15.5-29,28.8-28.2C63.6,97.8,176.1,190,207.1,215L207.1,215z"/>
		</g>
	</g>
</g>
</svg>
